<?xml version="1.0" encoding="UTF-8"?>
<?xml-stylesheet href="https://cdnjs.cloudflare.com/ajax/libs/font-awesome/7.2.0/css/all.min.css" type="text/css"?>
<svg id="graph-111" width="100%" xmlns="http://www.w3.org/2000/svg" class="classDiagram" style="overflow: hidden; max-width: 100%; touch-action: none; user-select: none; background-color: rgb(255, 255, 255);" role="graphics-document document" aria-roledescription="class" height="100%" xmlns:xlink="http://www.w3.org/1999/xlink" xmlns:ev="http://www.w3.org/2001/xml-events"><defs><filter id="graph-111-drop-shadow" height="130%" width="130%"><feDropShadow dx="4" dy="4" stdDeviation="0" flood-opacity="0.06" flood-color="#000000"></feDropShadow></filter></defs><defs><filter id="graph-111-drop-shadow-small" height="150%" width="150%"><feDropShadow dx="2" dy="2" stdDeviation="0" flood-opacity="0.06" flood-color="#000000"></feDropShadow></filter></defs><g id="viewport-20260713140529776" class="svg-pan-zoom_viewport" transform="matrix(1.0408576726913452,0,0,1.0408576726913452,176.59072875976562,91.50629425048828)" style="transform: matrix(1.04086, 0, 0, 1.04086, 176.591, 91.5063);"><style>#graph-111{font-family:"trebuchet ms",verdana,arial,sans-serif;font-size:16px;fill:#333;}@keyframes edge-animation-frame{from{stroke-dashoffset:0;}}@keyframes dash{to{stroke-dashoffset:0;}}#graph-111 .edge-animation-slow{stroke-dasharray:9,5!important;stroke-dashoffset:900;animation:dash 50s linear infinite;stroke-linecap:round;}#graph-111 .edge-animation-fast{stroke-dasharray:9,5!important;stroke-dashoffset:900;animation:dash 20s linear infinite;stroke-linecap:round;}#graph-111 .error-icon{fill:#552222;}#graph-111 .error-text{fill:#552222;stroke:#552222;}#graph-111 .edge-thickness-normal{stroke-width:1px;}#graph-111 .edge-thickness-thick{stroke-width:3.5px;}#graph-111 .edge-pattern-solid{stroke-dasharray:0;}#graph-111 .edge-thickness-invisible{stroke-width:0;fill:none;}#graph-111 .edge-pattern-dashed{stroke-dasharray:3;}#graph-111 .edge-pattern-dotted{stroke-dasharray:2;}#graph-111 .marker{fill:#333333;stroke:#333333;}#graph-111 .marker.cross{stroke:#333333;}#graph-111 svg{font-family:"trebuchet ms",verdana,arial,sans-serif;font-size:16px;}#graph-111 p{margin:0;}#graph-111 g.classGroup text{fill:#9370DB;stroke:none;font-family:"trebuchet ms",verdana,arial,sans-serif;font-size:10px;}#graph-111 g.classGroup text .title{font-weight:bolder;}#graph-111 .cluster-label text{fill:#333;}#graph-111 .cluster-label span{color:#333;}#graph-111 .cluster-label span p{background-color:transparent;}#graph-111 .cluster rect{fill:#ffffde;stroke:#aaaa33;stroke-width:1px;}#graph-111 .cluster text{fill:#333;}#graph-111 .cluster span{color:#333;}#graph-111 .nodeLabel,#graph-111 .edgeLabel{color:#131300;}#graph-111 .noteLabel .nodeLabel,#graph-111 .noteLabel .edgeLabel{color:black;}#graph-111 .edgeLabel .label rect{fill:#ECECFF;}#graph-111 .label text{fill:#131300;}#graph-111 .labelBkg{background:#ECECFF;}#graph-111 .edgeLabel .label span{background:#ECECFF;}#graph-111 .classTitle{font-weight:bolder;}#graph-111 .node rect,#graph-111 .node circle,#graph-111 .node ellipse,#graph-111 .node polygon,#graph-111 .node path{fill:#ECECFF;stroke:#9370DB;stroke-width:1;}#graph-111 .divider{stroke:#9370DB;stroke-width:1;}#graph-111 g.clickable{cursor:pointer;}#graph-111 g.classGroup rect{fill:#ECECFF;stroke:#9370DB;}#graph-111 g.classGroup line{stroke:#9370DB;stroke-width:1;}#graph-111 .classLabel .box{stroke:none;stroke-width:0;fill:#ECECFF;opacity:0.5;}#graph-111 .classLabel .label{fill:#9370DB;font-size:10px;}#graph-111 .relation{stroke:#333333;stroke-width:1;fill:none;}#graph-111 .dashed-line{stroke-dasharray:3;}#graph-111 .dotted-line{stroke-dasharray:1 2;}#graph-111 [id$="-compositionStart"],#graph-111 .composition{fill:#333333!important;stroke:#333333!important;stroke-width:1;}#graph-111 [id$="-compositionEnd"],#graph-111 .composition{fill:#333333!important;stroke:#333333!important;stroke-width:1;}#graph-111 [id$="-dependencyStart"],#graph-111 .dependency{fill:#333333!important;stroke:#333333!important;stroke-width:1;}#graph-111 [id$="-dependencyEnd"],#graph-111 .dependency{fill:#333333!important;stroke:#333333!important;stroke-width:1;}#graph-111 [id$="-extensionStart"],#graph-111 .extension{fill:transparent!important;stroke:#333333!important;stroke-width:1;}#graph-111 [id$="-extensionEnd"],#graph-111 .extension{fill:transparent!important;stroke:#333333!important;stroke-width:1;}#graph-111 [id$="-aggregationStart"],#graph-111 .aggregation{fill:transparent!important;stroke:#333333!important;stroke-width:1;}#graph-111 [id$="-aggregationEnd"],#graph-111 .aggregation{fill:transparent!important;stroke:#333333!important;stroke-width:1;}#graph-111 [id$="-lollipopStart"],#graph-111 .lollipop{fill:#ECECFF!important;stroke:#333333!important;stroke-width:1;}#graph-111 [id$="-lollipopEnd"],#graph-111 .lollipop{fill:#ECECFF!important;stroke:#333333!important;stroke-width:1;}#graph-111 .edgeTerminals{font-size:11px;line-height:initial;}#graph-111 .classTitleText{text-anchor:middle;font-size:18px;fill:#333;}#graph-111 .edgeLabel[data-look="neo"]{background-color:rgba(232,232,232, 0.8);text-align:center;}#graph-111 .edgeLabel[data-look="neo"] p{background-color:rgba(232,232,232, 0.8);}#graph-111 .edgeLabel[data-look="neo"] rect{opacity:0.5;background-color:rgba(232,232,232, 0.8);fill:rgba(232,232,232, 0.8);}#graph-111 .label-icon{display:inline-block;height:1em;overflow:visible;vertical-align:-0.125em;}#graph-111 .node .label-icon path{fill:currentColor;stroke:revert;stroke-width:revert;}#graph-111 .node .neo-node{stroke:#9370DB;}#graph-111 [data-look="neo"].node rect,#graph-111 [data-look="neo"].cluster rect,#graph-111 [data-look="neo"].node polygon{stroke:#9370DB;filter:drop-shadow(1px 2px 2px rgba(185, 185, 185, 1));}#graph-111 [data-look="neo"].swimlane.cluster rect{filter:none;}#graph-111 [data-look="neo"].node path{stroke:#9370DB;stroke-width:1px;}#graph-111 [data-look="neo"].node .outer-path{filter:drop-shadow(1px 2px 2px rgba(185, 185, 185, 1));}#graph-111 [data-look="neo"].node .neo-line path{stroke:#9370DB;filter:none;}#graph-111 [data-look="neo"].node circle{stroke:#9370DB;filter:drop-shadow(1px 2px 2px rgba(185, 185, 185, 1));}#graph-111 [data-look="neo"].node circle .state-start{fill:#000000;}#graph-111 [data-look="neo"].icon-shape .icon{fill:#9370DB;filter:drop-shadow(1px 2px 2px rgba(185, 185, 185, 1));}#graph-111 [data-look="neo"].icon-shape .icon-neo path{stroke:#9370DB;filter:drop-shadow(1px 2px 2px rgba(185, 185, 185, 1));}#graph-111 :root{--mermaid-font-family:"trebuchet ms",verdana,arial,sans-serif;}</style><g><defs><marker id="graph-111_class-aggregationStart" class="marker aggregation class" refX="18" refY="7" markerWidth="190" markerHeight="240" orient="auto"><path d="M 18,7 L9,13 L1,7 L9,1 Z"></path></marker></defs><defs><marker id="graph-111_class-aggregationEnd" class="marker aggregation class" refX="1" refY="7" markerWidth="20" markerHeight="28" orient="auto"><path d="M 18,7 L9,13 L1,7 L9,1 Z"></path></marker></defs><defs><marker id="graph-111_class-aggregationStart-margin" class="marker aggregation class" refX="15" refY="7" markerWidth="190" markerHeight="240" orient="auto" markerUnits="userSpaceOnUse"><path style="stroke-width: 2px;" d="M 18,7 L9,13 L1,7 L9,1 Z"></path></marker></defs><defs><marker id="graph-111_class-aggregationEnd-margin" class="marker aggregation class" refX="1" refY="7" markerWidth="20" markerHeight="28" orient="auto" markerUnits="userSpaceOnUse"><path style="stroke-width: 2px;" d="M 18,7 L9,13 L1,7 L9,1 Z"></path></marker></defs><defs><marker id="graph-111_class-extensionStart" class="marker extension class" refX="18" refY="7" markerWidth="20" markerHeight="28" orient="auto" markerUnits="userSpaceOnUse"><path d="M 1,7 L18,13 V 1 Z"></path></marker></defs><defs><marker id="graph-111_class-extensionEnd" class="marker extension class" refX="1" refY="7" markerWidth="20" markerHeight="28" orient="auto"><path d="M 1,1 V 13 L18,7 Z"></path></marker></defs><marker id="graph-111_class-extensionStart-margin" class="marker extension class" refX="18" refY="7" markerWidth="20" markerHeight="28" orient="auto" markerUnits="userSpaceOnUse" viewBox="0 0 20 14"><polygon points="10,7 18,13 18,1" style="stroke-width: 2px; stroke-dasharray: 0px;"></polygon></marker><defs><marker id="graph-111_class-extensionEnd-margin" class="marker extension class" refX="9" refY="7" markerWidth="20" markerHeight="28" orient="auto" markerUnits="userSpaceOnUse" viewBox="0 0 20 14"><polygon points="10,1 10,13 18,7" style="stroke-width: 2px; stroke-dasharray: 0px;"></polygon></marker></defs><defs><marker id="graph-111_class-compositionStart" class="marker composition class" refX="18" refY="7" markerWidth="190" markerHeight="240" orient="auto"><path d="M 18,7 L9,13 L1,7 L9,1 Z"></path></marker></defs><defs><marker id="graph-111_class-compositionEnd" class="marker composition class" refX="1" refY="7" markerWidth="20" markerHeight="28" orient="auto"><path d="M 18,7 L9,13 L1,7 L9,1 Z"></path></marker></defs><defs><marker id="graph-111_class-compositionStart-margin" class="marker composition class" refX="15" refY="7" markerWidth="190" markerHeight="240" orient="auto" markerUnits="userSpaceOnUse"><path style="stroke-width: 0px;" viewBox="0 0 15 15" d="M 18,7 L9,13 L1,7 L9,1 Z"></path></marker></defs><defs><marker id="graph-111_class-compositionEnd-margin" class="marker composition class" refX="3.5" refY="7" markerWidth="20" markerHeight="28" orient="auto" markerUnits="userSpaceOnUse"><path style="stroke-width: 0px;" d="M 18,7 L9,13 L1,7 L9,1 Z"></path></marker></defs><defs><marker id="graph-111_class-dependencyStart" class="marker dependency class" refX="6" refY="7" markerWidth="190" markerHeight="240" orient="auto"><path d="M 5,7 L9,13 L1,7 L9,1 Z"></path></marker></defs><defs><marker id="graph-111_class-dependencyEnd" class="marker dependency class" refX="13" refY="7" markerWidth="20" markerHeight="28" orient="auto"><path d="M 18,7 L9,13 L14,7 L9,1 Z"></path></marker></defs><defs><marker id="graph-111_class-dependencyStart-margin" class="marker dependency class" refX="4" refY="7" markerWidth="190" markerHeight="240" orient="auto" markerUnits="userSpaceOnUse"><path style="stroke-width: 0px;" d="M 5,7 L9,13 L1,7 L9,1 Z"></path></marker></defs><defs><marker id="graph-111_class-dependencyEnd-margin" class="marker dependency class" refX="16" refY="7" markerWidth="20" markerHeight="28" orient="auto" markerUnits="userSpaceOnUse"><path style="stroke-width: 0px;" d="M 18,7 L9,13 L14,7 L9,1 Z"></path></marker></defs><defs><marker id="graph-111_class-lollipopStart" class="marker lollipop class" refX="13" refY="7" markerWidth="190" markerHeight="240" orient="auto"><circle fill="transparent" cx="7" cy="7" r="6"></circle></marker></defs><defs><marker id="graph-111_class-lollipopEnd" class="marker lollipop class" refX="1" refY="7" markerWidth="190" markerHeight="240" orient="auto"><circle fill="transparent" cx="7" cy="7" r="6"></circle></marker></defs><defs><marker id="graph-111_class-lollipopStart-margin" class="marker lollipop class" refX="13" refY="7" markerWidth="190" markerHeight="240" orient="auto" markerUnits="userSpaceOnUse"><circle fill="transparent" cx="7" cy="7" r="6" stroke-width="2"></circle></marker></defs><defs><marker id="graph-111_class-lollipopEnd-margin" class="marker lollipop class" refX="1" refY="7" markerWidth="190" markerHeight="240" orient="auto" markerUnits="userSpaceOnUse"><circle fill="transparent" cx="7" cy="7" r="6" stroke-width="2"></circle></marker></defs><g class="root"><g class="clusters"></g><g class="edgePaths"><path d="M211.625,400L211.625,406.167C211.625,412.333,211.625,424.667,253.608,444.239C295.592,463.811,379.559,490.621,421.542,504.027L463.526,517.432" id="graph-111-id_Client_DependencyInterface_1" class="edge-thickness-normal edge-pattern-solid relation" style=";;;" data-edge="true" data-et="edge" data-id="id_Client_DependencyInterface_1" data-points="W3sieCI6MjExLjYyNSwieSI6NDAwfSx7IngiOjIxMS42MjUsInkiOjQzN30seyJ4Ijo0NjkuMjQxNjc2MzMwNTY2NCwieSI6NTE5LjI1NzE1MzI1MzMyMDR9XQ==" data-look="classic" marker-end="url(#graph-111_class-dependencyEnd)"></path><path d="M562.392,379L562.392,388.667C562.392,398.333,562.392,417.667,562.392,430.625C562.392,443.583,562.392,450.167,562.392,453.458L562.392,456.75" id="graph-111-id_ConcreteDependencyA_DependencyInterface_2" class="edge-thickness-normal edge-pattern-dashed relation" style=";;;" data-edge="true" data-et="edge" data-id="id_ConcreteDependencyA_DependencyInterface_2" data-points="W3sieCI6NTYyLjM5MTY3MDIyNzA1MDgsInkiOjM3OX0seyJ4Ijo1NjIuMzkxNjcwMjI3MDUwOCwieSI6NDM3fSx7IngiOjU2Mi4zOTE2NzAyMjcwNTA4LCJ5Ijo0NzR9XQ==" data-look="classic" marker-end="url(#graph-111_class-extensionEnd)"></path><path d="M806.367,379L806.367,388.667C806.367,398.333,806.367,417.667,783.842,437.674C761.317,457.68,716.268,478.361,693.743,488.701L671.219,499.041" id="graph-111-id_ConcreteDependencyB_DependencyInterface_3" class="edge-thickness-normal edge-pattern-dashed relation" style=";;;" data-edge="true" data-et="edge" data-id="id_ConcreteDependencyB_DependencyInterface_3" data-points="W3sieCI6ODA2LjM2NjY3NjMzMDU2NjQsInkiOjM3OX0seyJ4Ijo4MDYuMzY2Njc2MzMwNTY2NCwieSI6NDM3fSx7IngiOjY1NS41NDE2NjQxMjM1MzUyLCJ5Ijo1MDYuMjM4MjQ1NDk0Nzg3NX1d" data-look="classic" marker-end="url(#graph-111_class-extensionEnd)"></path><path d="M434.242,123.918L397.139,135.765C360.036,147.612,285.831,171.306,248.728,188.32C211.625,205.333,211.625,215.667,211.625,220.833L211.625,226" id="graph-111-id_Container_Client_4" class="edge-thickness-normal edge-pattern-dashed relation" style=";;;" data-edge="true" data-et="edge" data-id="id_Container_Client_4" data-points="W3sieCI6NDM0LjI0MTY3NjMzMDU2NjQsInkiOjEyMy45MTgzNjY5MjIxMzU3M30seyJ4IjoyMTEuNjI1LCJ5IjoxOTV9LHsieCI6MjExLjYyNSwieSI6MjMyfV0=" data-look="classic" marker-end="url(#graph-111_class-dependencyEnd)"></path><path d="M562.392,158L562.392,164.167C562.392,170.333,562.392,182.667,562.392,197.5C562.392,212.333,562.392,229.667,562.392,238.333L562.392,247" id="graph-111-id_Container_ConcreteDependencyA_5" class="edge-thickness-normal edge-pattern-dashed relation" style=";;;" data-edge="true" data-et="edge" data-id="id_Container_ConcreteDependencyA_5" data-points="W3sieCI6NTYyLjM5MTY3MDIyNzA1MDgsInkiOjE1OH0seyJ4Ijo1NjIuMzkxNjcwMjI3MDUwOCwieSI6MTk1fSx7IngiOjU2Mi4zOTE2NzAyMjcwNTA4LCJ5IjoyNTN9XQ==" data-look="classic" marker-end="url(#graph-111_class-dependencyEnd)"></path><path d="M690.542,141.829L709.846,150.691C729.15,159.553,767.758,177.276,787.063,194.805C806.367,212.333,806.367,229.667,806.367,238.333L806.367,247" id="graph-111-id_Container_ConcreteDependencyB_6" class="edge-thickness-normal edge-pattern-dashed relation" style=";;;" data-edge="true" data-et="edge" data-id="id_Container_ConcreteDependencyB_6" data-points="W3sieCI6NjkwLjU0MTY2NDEyMzUzNTIsInkiOjE0MS44Mjg5NzQxMDUzMDg3fSx7IngiOjgwNi4zNjY2NzYzMzA1NjY0LCJ5IjoxOTV9LHsieCI6ODA2LjM2NjY3NjMzMDU2NjQsInkiOjI1M31d" data-look="classic" marker-end="url(#graph-111_class-dependencyEnd)"></path></g><g class="edgeLabels"><g class="edgeLabel" transform="translate(211.625, 437)"><g class="label" data-id="id_Client_DependencyInterface_1" transform="translate(-16.041664123535156, -12)"><foreignObject width="32.08332824707031" height="24"><div style="display: table-cell; white-space: nowrap; line-height: 1.5; max-width: 200px; text-align: center;" xmlns="http://www.w3.org/1999/xhtml" class="labelBkg"><span class="edgeLabel"><p>Uses</p></span></div></foreignObject></g></g><g class="edgeLabel" transform="translate(562.3916702270508, 437)"><g class="label" data-id="id_ConcreteDependencyA_DependencyInterface_2" transform="translate(-41.849998474121094, -12)"><foreignObject width="83.69999694824219" height="24"><div style="display: table-cell; white-space: nowrap; line-height: 1.5; max-width: 200px; text-align: center;" xmlns="http://www.w3.org/1999/xhtml" class="labelBkg"><span class="edgeLabel"><p>Implements</p></span></div></foreignObject></g></g><g class="edgeLabel" transform="translate(806.3666763305664, 437)"><g class="label" data-id="id_ConcreteDependencyB_DependencyInterface_3" transform="translate(-41.849998474121094, -12)"><foreignObject width="83.69999694824219" height="24"><div style="display: table-cell; white-space: nowrap; line-height: 1.5; max-width: 200px; text-align: center;" xmlns="http://www.w3.org/1999/xhtml" class="labelBkg"><span class="edgeLabel"><p>Implements</p></span></div></foreignObject></g></g><g class="edgeLabel" transform="translate(211.625, 195)"><g class="label" data-id="id_Container_Client_4" transform="translate(-24.275001525878906, -12)"><foreignObject width="48.55000305175781" height="24"><div style="display: table-cell; white-space: nowrap; line-height: 1.5; max-width: 200px; text-align: center;" xmlns="http://www.w3.org/1999/xhtml" class="labelBkg"><span class="edgeLabel"><p>Injects</p></span></div></foreignObject></g></g><g class="edgeLabel" transform="translate(562.3916702270508, 195)"><g class="label" data-id="id_Container_ConcreteDependencyA_5" transform="translate(-30.10832977294922, -12)"><foreignObject width="60.21665954589844" height="24"><div style="display: table-cell; white-space: nowrap; line-height: 1.5; max-width: 200px; text-align: center;" xmlns="http://www.w3.org/1999/xhtml" class="labelBkg"><span class="edgeLabel"><p>Resolves</p></span></div></foreignObject></g></g><g class="edgeLabel" transform="translate(806.3666763305664, 195)"><g class="label" data-id="id_Container_ConcreteDependencyB_6" transform="translate(-30.10832977294922, -12)"><foreignObject width="60.21665954589844" height="24"><div style="display: table-cell; white-space: nowrap; line-height: 1.5; max-width: 200px; text-align: center;" xmlns="http://www.w3.org/1999/xhtml" class="labelBkg"><span class="edgeLabel"><p>Resolves</p></span></div></foreignObject></g></g></g><g class="nodes"><g class="node default" id="graph-111-classId-Client-160" data-look="classic" transform="translate(211.625, 316)"><g class="basic label-container outer-path"><path d="M-203.625 -84 L203.625 -84 L203.625 84 L-203.625 84" stroke="none" stroke-width="0" fill="#ECECFF" style=""></path><path d="M-203.625 -84 C-57.06916704289907 -84, 89.48666591420186 -84, 203.625 -84 M-203.625 -84 C-69.43648486791952 -84, 64.75203026416096 -84, 203.625 -84 M203.625 -84 C203.625 -28.940276272398584, 203.625 26.11944745520283, 203.625 84 M203.625 -84 C203.625 -47.79568279438005, 203.625 -11.591365588760098, 203.625 84 M203.625 84 C100.71062001035888 84, -2.203759979282239 84, -203.625 84 M203.625 84 C78.68077244666908 84, -46.26345510666184 84, -203.625 84 M-203.625 84 C-203.625 39.061746121365424, -203.625 -5.876507757269152, -203.625 -84 M-203.625 84 C-203.625 44.24434271207177, -203.625 4.48868542414354, -203.625 -84" stroke="#9370DB" stroke-width="1.3" fill="none" stroke-dasharray="0 0" style=""></path></g><g class="annotation-group text" transform="translate(0, -60)"></g><g class="label-group text" transform="translate(-22.133331298828125, -60)"><g class="label" style="font-weight: bolder" transform="translate(0,-12)"><foreignObject width="44.26666259765625" height="24"><div style="display: table-cell; white-space: nowrap; line-height: 1.5; max-width: 97px; text-align: center;" xmlns="http://www.w3.org/1999/xhtml"><span class="nodeLabel markdown-node-label" style=""><p>Client</p></span></div></foreignObject></g></g><g class="members-group text" transform="translate(-191.625, -12)"><g class="label" style="" transform="translate(0,-12)"><foreignObject width="262.76666259765625" height="24"><div style="display: table-cell; white-space: nowrap; line-height: 1.5; max-width: 351px; text-align: center;" xmlns="http://www.w3.org/1999/xhtml"><span class="nodeLabel markdown-node-label" style=""><p>- DependencyInterface $dependency</p></span></div></foreignObject></g></g><g class="methods-group text" transform="translate(-191.625, 36)"><g class="label" style="" transform="translate(0,-12)"><foreignObject width="361.1166687011719" height="24"><div style="display: table-cell; white-space: nowrap; line-height: 1.5; max-width: 461px; text-align: center;" xmlns="http://www.w3.org/1999/xhtml"><span class="nodeLabel markdown-node-label" style=""><p>+ __construct(DependencyInterface $dependency)</p></span></div></foreignObject></g><g class="label" style="" transform="translate(0,12)"><foreignObject width="117.21665954589844" height="24"><div style="display: table-cell; white-space: nowrap; line-height: 1.5; max-width: 191px; text-align: center;" xmlns="http://www.w3.org/1999/xhtml"><span class="nodeLabel markdown-node-label" style=""><p>+ doSomething()</p></span></div></foreignObject></g></g><g class="divider" style=""><path d="M-203.625 -36 C-52.16860152670529 -35.999628099696814, 99.28779694658942 -35.99925619939363, 203.625 -35.999 M-203.625 -36 C-88.21007128179998 -35.99971659931561, 27.204857436400033 -35.999433198631216, 203.625 -35.999" stroke="#9370DB" stroke-width="1.3" fill="none" stroke-dasharray="0 0" style=""></path></g><g class="divider" style=""><path d="M-203.625 12 C-80.57824386423596 12.000302140592106, 42.468512271528084 12.000604281184215, 203.625 12.001 M-203.625 12 C-53.88914170005819 12.000367675526826, 95.84671659988362 12.000735351053653, 203.625 12.001" stroke="#9370DB" stroke-width="1.3" fill="none" stroke-dasharray="0 0" style=""></path></g></g><g class="node default" id="graph-111-classId-DependencyInterface-161" data-look="classic" transform="translate(562.3916702270508, 549)"><g class="basic label-container outer-path"><path d="M-93.14999389648438 -75 L93.14999389648438 -75 L93.14999389648438 75 L-93.14999389648438 75" stroke="none" stroke-width="0" fill="#ECECFF" style=""></path><path d="M-93.14999389648438 -75 C-38.882431222640925 -75, 15.385131451202525 -75, 93.14999389648438 -75 M-93.14999389648438 -75 C-33.604668100659644 -75, 25.940657695165086 -75, 93.14999389648438 -75 M93.14999389648438 -75 C93.14999389648438 -32.55869346846106, 93.14999389648438 9.882613063077883, 93.14999389648438 75 M93.14999389648438 -75 C93.14999389648438 -41.54581747432181, 93.14999389648438 -8.091634948643616, 93.14999389648438 75 M93.14999389648438 75 C38.86146023061867 75, -15.427073435247038 75, -93.14999389648438 75 M93.14999389648438 75 C20.51399569338507 75, -52.122002509714235 75, -93.14999389648438 75 M-93.14999389648438 75 C-93.14999389648438 40.17188206374665, -93.14999389648438 5.343764127493301, -93.14999389648438 -75 M-93.14999389648438 75 C-93.14999389648438 22.22072967996212, -93.14999389648438 -30.558540640075762, -93.14999389648438 -75" stroke="#9370DB" stroke-width="1.3" fill="none" stroke-dasharray="0 0" style=""></path></g><g class="annotation-group text" transform="translate(-41.17500305175781, -51)"><g class="label" style="" transform="translate(0,-12)"><foreignObject width="82.35000610351562" height="24"><div style="display: table-cell; white-space: nowrap; line-height: 1.5; max-width: 142px; text-align: center;" xmlns="http://www.w3.org/1999/xhtml"><span class="nodeLabel markdown-node-label" style=""><p>«interface»</p></span></div></foreignObject></g></g><g class="label-group text" transform="translate(-80.0999984741211, -27)"><g class="label" style="font-weight: bolder" transform="translate(0,-12)"><foreignObject width="160.1999969482422" height="24"><div style="display: table-cell; white-space: nowrap; line-height: 1.5; max-width: 221px; text-align: center;" xmlns="http://www.w3.org/1999/xhtml"><span class="nodeLabel markdown-node-label" style=""><p>DependencyInterface</p></span></div></foreignObject></g></g><g class="members-group text" transform="translate(-81.14999389648438, 21)"></g><g class="methods-group text" transform="translate(-81.14999389648438, 51)"><g class="label" style="" transform="translate(0,-12)"><foreignObject width="82.19999694824219" height="24"><div style="display: table-cell; white-space: nowrap; line-height: 1.5; max-width: 150px; text-align: center;" xmlns="http://www.w3.org/1999/xhtml"><span class="nodeLabel markdown-node-label" style=""><p>+ execute()</p></span></div></foreignObject></g></g><g class="divider" style=""><path d="M-93.14999389648438 -3 C-25.04153178949936 -2.999634415101612, 43.06693031748566 -2.999268830203224, 93.14999389648438 -2.999 M-93.14999389648438 -3 C-28.691932907754193 -2.9996540093117967, 35.76612808097599 -2.999308018623594, 93.14999389648438 -2.999" stroke="#9370DB" stroke-width="1.3" fill="none" stroke-dasharray="0 0" style=""></path></g><g class="divider" style=""><path d="M-93.14999389648438 21 C-30.32190640178554 21.000337241500866, 32.506181092913295 21.000674483001735, 93.14999389648438 21.001 M-93.14999389648438 21 C-41.8123018060488 21.000275564656224, 9.525390284386773 21.000551129312445, 93.14999389648438 21.001" stroke="#9370DB" stroke-width="1.3" fill="none" stroke-dasharray="0 0" style=""></path></g></g><g class="node default" id="graph-111-classId-ConcreteDependencyA-162" data-look="classic" transform="translate(562.3916702270508, 316)"><g class="basic label-container outer-path"><path d="M-97.14167022705078 -63 L97.14167022705078 -63 L97.14167022705078 63 L-97.14167022705078 63" stroke="none" stroke-width="0" fill="#ECECFF" style=""></path><path d="M-97.14167022705078 -63 C-21.455865787598512 -63, 54.22993865185376 -63, 97.14167022705078 -63 M-97.14167022705078 -63 C-23.75465183275611 -63, 49.63236656153856 -63, 97.14167022705078 -63 M97.14167022705078 -63 C97.14167022705078 -36.64438054719286, 97.14167022705078 -10.28876109438572, 97.14167022705078 63 M97.14167022705078 -63 C97.14167022705078 -13.883173971320282, 97.14167022705078 35.233652057359436, 97.14167022705078 63 M97.14167022705078 63 C32.49241209946099 63, -32.1568460281288 63, -97.14167022705078 63 M97.14167022705078 63 C41.950138049760255 63, -13.24139412753027 63, -97.14167022705078 63 M-97.14167022705078 63 C-97.14167022705078 34.221797510813, -97.14167022705078 5.443595021625995, -97.14167022705078 -63 M-97.14167022705078 63 C-97.14167022705078 15.524439653504068, -97.14167022705078 -31.951120692991864, -97.14167022705078 -63" stroke="#9370DB" stroke-width="1.3" fill="none" stroke-dasharray="0 0" style=""></path></g><g class="annotation-group text" transform="translate(0, -39)"></g><g class="label-group text" transform="translate(-85.14167022705078, -39)"><g class="label" style="font-weight: bolder" transform="translate(0,-12)"><foreignObject width="170.28334045410156" height="24"><div style="display: table-cell; white-space: nowrap; line-height: 1.5; max-width: 226px; text-align: center;" xmlns="http://www.w3.org/1999/xhtml"><span class="nodeLabel markdown-node-label" style=""><p>ConcreteDependencyA</p></span></div></foreignObject></g></g><g class="members-group text" transform="translate(-85.14167022705078, 9)"></g><g class="methods-group text" transform="translate(-85.14167022705078, 39)"><g class="label" style="" transform="translate(0,-12)"><foreignObject width="82.19999694824219" height="24"><div style="display: table-cell; white-space: nowrap; line-height: 1.5; max-width: 150px; text-align: center;" xmlns="http://www.w3.org/1999/xhtml"><span class="nodeLabel markdown-node-label" style=""><p>+ execute()</p></span></div></foreignObject></g></g><g class="divider" style=""><path d="M-97.14167022705078 -15 C-32.28347491526671 -14.999666166974686, 32.574720396517364 -14.999332333949374, 97.14167022705078 -14.999 M-97.14167022705078 -15 C-30.401999219973717 -14.999656482790284, 36.337671787103346 -14.999312965580568, 97.14167022705078 -14.999" stroke="#9370DB" stroke-width="1.3" fill="none" stroke-dasharray="0 0" style=""></path></g><g class="divider" style=""><path d="M-97.14167022705078 9 C-56.754888049880265 9.000207875683436, -16.368105872709748 9.000415751366873, 97.14167022705078 9.001 M-97.14167022705078 9 C-28.850558422571595 9.00035150266433, 39.44055338190759 9.000703005328658, 97.14167022705078 9.001" stroke="#9370DB" stroke-width="1.3" fill="none" stroke-dasharray="0 0" style=""></path></g></g><g class="node default" id="graph-111-classId-ConcreteDependencyB-163" data-look="classic" transform="translate(806.3666763305664, 316)"><g class="basic label-container outer-path"><path d="M-96.83333587646484 -63 L96.83333587646484 -63 L96.83333587646484 63 L-96.83333587646484 63" stroke="none" stroke-width="0" fill="#ECECFF" style=""></path><path d="M-96.83333587646484 -63 C-24.71371996051161 -63, 47.40589595544162 -63, 96.83333587646484 -63 M-96.83333587646484 -63 C-37.007258156532835 -63, 22.818819563399174 -63, 96.83333587646484 -63 M96.83333587646484 -63 C96.83333587646484 -23.851265140596283, 96.83333587646484 15.297469718807434, 96.83333587646484 63 M96.83333587646484 -63 C96.83333587646484 -20.85670125715577, 96.83333587646484 21.28659748568846, 96.83333587646484 63 M96.83333587646484 63 C39.55771093073065 63, -17.717914015003544 63, -96.83333587646484 63 M96.83333587646484 63 C46.74518407143701 63, -3.342967733590825 63, -96.83333587646484 63 M-96.83333587646484 63 C-96.83333587646484 26.32680548012143, -96.83333587646484 -10.346389039757142, -96.83333587646484 -63 M-96.83333587646484 63 C-96.83333587646484 25.82592963507122, -96.83333587646484 -11.348140729857562, -96.83333587646484 -63" stroke="#9370DB" stroke-width="1.3" fill="none" stroke-dasharray="0 0" style=""></path></g><g class="annotation-group text" transform="translate(0, -39)"></g><g class="label-group text" transform="translate(-84.83333587646484, -39)"><g class="label" style="font-weight: bolder" transform="translate(0,-12)"><foreignObject width="169.6666717529297" height="24"><div style="display: table-cell; white-space: nowrap; line-height: 1.5; max-width: 226px; text-align: center;" xmlns="http://www.w3.org/1999/xhtml"><span class="nodeLabel markdown-node-label" style=""><p>ConcreteDependencyB</p></span></div></foreignObject></g></g><g class="members-group text" transform="translate(-84.83333587646484, 9)"></g><g class="methods-group text" transform="translate(-84.83333587646484, 39)"><g class="label" style="" transform="translate(0,-12)"><foreignObject width="82.19999694824219" height="24"><div style="display: table-cell; white-space: nowrap; line-height: 1.5; max-width: 150px; text-align: center;" xmlns="http://www.w3.org/1999/xhtml"><span class="nodeLabel markdown-node-label" style=""><p>+ execute()</p></span></div></foreignObject></g></g><g class="divider" style=""><path d="M-96.83333587646484 -15 C-30.688487649520425 -14.999658460345147, 35.45636057742399 -14.999316920690296, 96.83333587646484 -14.999 M-96.83333587646484 -15 C-40.63862302887901 -14.999709837979148, 15.556089818706823 -14.999419675958295, 96.83333587646484 -14.999" stroke="#9370DB" stroke-width="1.3" fill="none" stroke-dasharray="0 0" style=""></path></g><g class="divider" style=""><path d="M-96.83333587646484 9 C-22.153474834037993 9.000385610287854, 52.52638620838886 9.000771220575707, 96.83333587646484 9.001 M-96.83333587646484 9 C-57.03523249029148 9.000205497946682, -17.23712910411811 9.000410995893366, 96.83333587646484 9.001" stroke="#9370DB" stroke-width="1.3" fill="none" stroke-dasharray="0 0" style=""></path></g></g><g class="node default" id="graph-111-classId-Container-164" data-look="classic" transform="translate(562.3916702270508, 83)"><g class="basic label-container outer-path"><path d="M-128.1500015258789 -75 L128.1500015258789 -75 L128.1500015258789 75 L-128.1500015258789 75" stroke="none" stroke-width="0" fill="#ECECFF" style=""></path><path d="M-128.1500015258789 -75 C-76.47338697188277 -75, -24.796772417886643 -75, 128.1500015258789 -75 M-128.1500015258789 -75 C-30.255864258150325 -75, 67.63827300957826 -75, 128.1500015258789 -75 M128.1500015258789 -75 C128.1500015258789 -22.40584538418613, 128.1500015258789 30.18830923162774, 128.1500015258789 75 M128.1500015258789 -75 C128.1500015258789 -32.478533516448316, 128.1500015258789 10.042932967103368, 128.1500015258789 75 M128.1500015258789 75 C72.19383849759498 75, 16.237675469311057 75, -128.1500015258789 75 M128.1500015258789 75 C52.0973489584715 75, -23.955303608935907 75, -128.1500015258789 75 M-128.1500015258789 75 C-128.1500015258789 34.214979267534794, -128.1500015258789 -6.570041464930412, -128.1500015258789 -75 M-128.1500015258789 75 C-128.1500015258789 18.494889582941134, -128.1500015258789 -38.01022083411773, -128.1500015258789 -75" stroke="#9370DB" stroke-width="1.3" fill="none" stroke-dasharray="0 0" style=""></path></g><g class="annotation-group text" transform="translate(0, -51)"></g><g class="label-group text" transform="translate(-36.69999694824219, -51)"><g class="label" style="font-weight: bolder" transform="translate(0,-12)"><foreignObject width="73.39999389648438" height="24"><div style="display: table-cell; white-space: nowrap; line-height: 1.5; max-width: 128px; text-align: center;" xmlns="http://www.w3.org/1999/xhtml"><span class="nodeLabel markdown-node-label" style=""><p>Container</p></span></div></foreignObject></g></g><g class="members-group text" transform="translate(-116.1500015258789, -3)"></g><g class="methods-group text" transform="translate(-116.1500015258789, 27)"><g class="label" style="" transform="translate(0,-12)"><foreignObject width="138.0833282470703" height="24"><div style="display: table-cell; white-space: nowrap; line-height: 1.5; max-width: 210px; text-align: center;" xmlns="http://www.w3.org/1999/xhtml"><span class="nodeLabel markdown-node-label" style=""><p>+ make(className)</p></span></div></foreignObject></g><g class="label" style="" transform="translate(0,12)"><foreignObject width="195.60000610351562" height="24"><div style="display: table-cell; white-space: nowrap; line-height: 1.5; max-width: 272px; text-align: center;" xmlns="http://www.w3.org/1999/xhtml"><span class="nodeLabel markdown-node-label" style=""><p>+ bind(interface, concrete)</p></span></div></foreignObject></g></g><g class="divider" style=""><path d="M-128.14999389648438 -27 C-51.49027168691836 -26.99970089845548, 25.16945052264765 -26.99940179691096, 128.14999389648438 -26.999 M-128.14999389648438 -27 C-43.94685758941259 -26.99967146648335, 40.2562787176592 -26.999342932966698, 128.14999389648438 -26.999" stroke="#9370DB" stroke-width="1.3" fill="none" stroke-dasharray="0 0" style=""></path></g><g class="divider" style=""><path d="M-128.14999389648438 -3 C-46.02390238189513 -2.9996795704431287, 36.10218913269412 -2.999359140886258, 128.14999389648438 -2.999 M-128.14999389648438 -3 C-27.82643781407822 -2.999608569797657, 72.49711826832794 -2.9992171395953133, 128.14999389648438 -2.999" stroke="#9370DB" stroke-width="1.3" fill="none" stroke-dasharray="0 0" style=""></path></g></g></g></g></g></g></svg>